<svg width="26" height="26" viewBox="0 0 26 26" fill="none" xmlns="http://www.w3.org/2000/svg">
<path d="M1.57576 4.72728C0.705491 3.85701 0.705491 2.44603 1.57576 1.57576V1.57576C2.44602 0.705495 3.85701 0.705495 4.72727 1.57576L24.4242 21.2727C25.2945 22.143 25.2945 23.554 24.4242 24.4242V24.4242C23.554 25.2945 22.143 25.2945 21.2727 24.4242L1.57576 4.72728Z" fill="#DE3535"/>
<path d="M21.2727 1.57576C22.143 0.705491 23.554 0.705491 24.4242 1.57576V1.57576C25.2945 2.44602 25.2945 3.85701 24.4242 4.72727L4.72727 24.4242C3.85701 25.2945 2.44602 25.2945 1.57576 24.4242V24.4242C0.705489 23.554 0.705489 22.143 1.57576 21.2727L21.2727 1.57576Z" fill="#DE3535"/>
</svg>
